<svg id="Layer_1" data-name="Layer 1" xmlns="http://www.w3.org/2000/svg" viewBox="0 0 307.1 82.97"><defs><style>.cls-1{fill:none;stroke-width:7px;}.cls-1,.cls-3,.cls-4{stroke:#000;stroke-miterlimit:10;}.cls-2{fill:#ee7d15;}.cls-3{stroke-width:2px;}</style></defs><title>hora</title><path class="cls-1" d="M354.72,323.48l-54.83,0a4,4,0,0,1-3.46-3.42V265.36c0-1.57,1.17-2.84,3.31-2.84h53.94c2.75,0,4.54,2.28,4.54,3.84l.17,53.79C358.39,321.72,356.29,323.48,354.72,323.48Z" transform="translate(-292.93 -259.02)"/><polygon class="cls-2" points="69.73 82.97 59.92 82.84 60.04 45.1 69.67 45.1 69.73 82.97"/><path class="cls-2" d="M374.84,319.11H341l-.2,8.71h33.94S374.84,318.86,374.84,319.11Z" transform="translate(-292.93 -259.02)"/><path class="cls-3" d="M428,268v51.09h-8V295.93H391.13L391,319.08h-6.92L383.92,268h7.21L391,290h29V268Z" transform="translate(-292.93 -259.02)"/><path class="cls-4" d="M450.22,315.63a24.73,24.73,0,0,1-9.61-9.25,26.6,26.6,0,0,1,0-26.35,24.74,24.74,0,0,1,9.61-9.25,29.77,29.77,0,0,1,27.43,0,24.57,24.57,0,0,1,9.58,9.22,27,27,0,0,1,0,26.42,24.56,24.56,0,0,1-9.58,9.22,29.76,29.76,0,0,1-27.43,0ZM473.94,310a18.49,18.49,0,0,0,7-6.95,20.45,20.45,0,0,0,0-19.8,18.5,18.5,0,0,0-7-6.95,19.81,19.81,0,0,0-10-2.52,20.2,20.2,0,0,0-10,2.52,18.34,18.34,0,0,0-7.06,6.95,20.45,20.45,0,0,0,0,19.8,18.33,18.33,0,0,0,7.06,6.95,20.19,20.19,0,0,0,10,2.52A19.8,19.8,0,0,0,473.94,310Z" transform="translate(-292.93 -259.02)"/><path class="cls-4" d="M535.39,318.4l-10.73-15.9a32.55,32.55,0,0,1-3.33-.08h-13l.26,16H501.7V267.58h19.84c6.53,0,11.48,2,15.22,5.09s5.62,7.42,5.62,12.89a16.86,16.86,0,0,1-2.88,9.94,16.27,16.27,0,0,1-8.21,6l12,16.92ZM531.58,294q3.6-3,3.6-8.42t-3.6-8.39q-3.6-2.92-10.44-2.92H508.5v22.29h12.71C525.77,296.54,529.18,296,531.58,294Z" transform="translate(-292.93 -259.02)"/><path class="cls-4" d="M586,305.38l-26.38-.08-5.76,13.1h-7.42L569.23,268h7.13l22.9,50.4H591.7Zm-2.13-4.88-11.08-25.16-11.12,25.27Z" transform="translate(-292.93 -259.02)"/></svg>